<svg xmlns="http://www.w3.org/2000/svg" viewBox="0 0 32 32">
  <!-- Orange circle background -->
  <circle cx="16" cy="16" r="16" fill="#f97316"/>

  <!-- Steam wisps (two S-curves) -->
  <path d="M12 12.5 C10.5 11 13.5 9.5 12 8"
        stroke="white" stroke-width="1.5" fill="none" stroke-linecap="round"/>
  <path d="M20 12.5 C18.5 11 21.5 9.5 20 8"
        stroke="white" stroke-width="1.5" fill="none" stroke-linecap="round"/>

  <!-- Bowl rim -->
  <rect x="7" y="13.5" width="18" height="2.5" rx="1.25" fill="white"/>

  <!-- Bowl body (half-ellipse) -->
  <path d="M7 16 Q7.5 24.5 16 24.5 Q24.5 24.5 25 16 Z" fill="white"/>

  <!-- Noodle waves inside bowl -->
  <path d="M11 19.5 Q12.5 18.5 14 19.5 Q15.5 20.5 17 19.5 Q18.5 18.5 20 19.5"
        stroke="#f97316" stroke-width="1.3" fill="none" stroke-linecap="round"/>
  <path d="M12 22 Q13.5 21 15 22 Q16.5 23 18 22 Q19.5 21 21 22"
        stroke="#f97316" stroke-width="1.3" fill="none" stroke-linecap="round"/>
</svg>
